<svg width="10" height="6" viewBox="0 0 10 6" color="red" fill="none" xmlns="http://www.w3.org/2000/svg">
<path d="M5 4.03906L8.5 0.539062C8.60938 0.429688 8.75521 0.375 8.9375 0.375C9.11979 0.375 9.27474 0.438802 9.40234 0.566406C9.52995 0.69401 9.59375 0.848958 9.59375 1.03125C9.59375 1.21354 9.53906 1.3776 9.42969 1.52344L5.49219 5.46094C5.34635 5.57031 5.18229 5.625 5 5.625C4.81771 5.625 4.67188 5.57031 4.5625 5.46094L0.570312 1.46875C0.460938 1.35938 0.40625 1.21354 0.40625 1.03125C0.40625 0.848958 0.470052 0.69401 0.597656 0.566406C0.72526 0.438802 0.880208 0.375 1.0625 0.375C1.24479 0.375 1.39062 0.429688 1.5 0.539062L5 4.03906Z" fill="#1B1B1B"/>
</svg>
