<svg width="14" height="14" viewBox="0 0 14 14" fill="none" xmlns="http://www.w3.org/2000/svg">
<path d="M6.99766 3.41172C5.01016 3.41172 3.40703 5.01484 3.40703 7.00234C3.40703 8.98984 5.01016 10.593 6.99766 10.593C8.98516 10.593 10.5883 8.98984 10.5883 7.00234C10.5883 5.01484 8.98516 3.41172 6.99766 3.41172ZM6.99766 9.33672C5.71328 9.33672 4.66328 8.28984 4.66328 7.00234C4.66328 5.71484 5.71016 4.66797 6.99766 4.66797C8.28516 4.66797 9.33203 5.71484 9.33203 7.00234C9.33203 8.28984 8.28203 9.33672 6.99766 9.33672ZM11.5727 3.26484C11.5727 3.73047 11.1977 4.10234 10.7352 4.10234C10.2695 4.10234 9.89766 3.72734 9.89766 3.26484C9.89766 2.80234 10.2727 2.42734 10.7352 2.42734C11.1977 2.42734 11.5727 2.80234 11.5727 3.26484ZM13.9508 4.11484C13.8977 2.99297 13.6414 1.99922 12.8195 1.18047C12.0008 0.361719 11.007 0.105469 9.88516 0.0492187C8.72891 -0.0164062 5.26328 -0.0164062 4.10703 0.0492187C2.98828 0.102344 1.99453 0.358594 1.17266 1.17734C0.350781 1.99609 0.0976562 2.98984 0.0414062 4.11172C-0.0242187 5.26797 -0.0242187 8.73359 0.0414062 9.88984C0.0945313 11.0117 0.350781 12.0055 1.17266 12.8242C1.99453 13.643 2.98516 13.8992 4.10703 13.9555C5.26328 14.0211 8.72891 14.0211 9.88516 13.9555C11.007 13.9023 12.0008 13.6461 12.8195 12.8242C13.6383 12.0055 13.8945 11.0117 13.9508 9.88984C14.0164 8.73359 14.0164 5.27109 13.9508 4.11484ZM12.457 11.1305C12.2133 11.743 11.7414 12.2148 11.1258 12.4617C10.2039 12.8273 8.01641 12.743 6.99766 12.743C5.97891 12.743 3.78828 12.8242 2.86953 12.4617C2.25703 12.218 1.78516 11.7461 1.53828 11.1305C1.17266 10.2086 1.25703 8.02109 1.25703 7.00234C1.25703 5.98359 1.17578 3.79297 1.53828 2.87422C1.78203 2.26172 2.25391 1.78984 2.86953 1.54297C3.79141 1.17734 5.97891 1.26172 6.99766 1.26172C8.01641 1.26172 10.207 1.18047 11.1258 1.54297C11.7383 1.78672 12.2102 2.25859 12.457 2.87422C12.8227 3.79609 12.7383 5.98359 12.7383 7.00234C12.7383 8.02109 12.8227 10.2117 12.457 11.1305Z" fill="#F4F0F0"/>
</svg>
