<svg width="14" height="14" viewBox="0 0 14 14" fill="none" xmlns="http://www.w3.org/2000/svg">
<path d="M12.9922 0H0.989062C0.439062 0 -0.0078125 0.453125 -0.0078125 1.00938V12.9906C-0.0078125 13.5469 0.439062 14 0.989062 14H12.9922C13.5422 14 13.9922 13.5469 13.9922 12.9906V1.00938C13.9922 0.453125 13.5422 0 12.9922 0ZM4.22344 12H2.14844V5.31875H4.22656V12H4.22344ZM3.18594 4.40625C2.52031 4.40625 1.98281 3.86562 1.98281 3.20312C1.98281 2.54063 2.52031 2 3.18594 2C3.84844 2 4.38906 2.54063 4.38906 3.20312C4.38906 3.86875 3.85156 4.40625 3.18594 4.40625ZM12.0016 12H9.92656V8.75C9.92656 7.975 9.91094 6.97813 8.84844 6.97813C7.76719 6.97813 7.60156 7.82188 7.60156 8.69375V12H5.52656V5.31875H7.51719V6.23125H7.54531C7.82344 5.70625 8.50156 5.15312 9.51094 5.15312C11.6109 5.15312 12.0016 6.5375 12.0016 8.3375V12Z" fill="#F4F0F0"/>
</svg>
