<svg width="16" height="13" viewBox="0 0 16 13" fill="none" xmlns="http://www.w3.org/2000/svg">
<path d="M14.3475 3.23856C14.3577 3.38069 14.3577 3.52284 14.3577 3.66497C14.3577 7.99997 11.0582 12.9949 5.02772 12.9949C3.16984 12.9949 1.44397 12.4568 -0.0078125 11.5228C0.256156 11.5533 0.509938 11.5634 0.784063 11.5634C2.31703 11.5634 3.72822 11.0457 4.85512 10.1624C3.4135 10.132 2.20537 9.18781 1.78912 7.88831C1.99219 7.91875 2.19522 7.93906 2.40844 7.93906C2.70284 7.93906 2.99728 7.89844 3.27137 7.82741C1.76884 7.52281 0.641906 6.20303 0.641906 4.60913V4.56853C1.07844 4.81219 1.58609 4.96447 2.12413 4.98475C1.24088 4.39591 0.662219 3.39084 0.662219 2.25378C0.662219 1.64466 0.824625 1.08628 1.10891 0.598969C2.72312 2.58881 5.14953 3.88828 7.87031 4.03044C7.81956 3.78678 7.78909 3.533 7.78909 3.27919C7.78909 1.47206 9.25103 0 11.0683 0C12.0124 0 12.8652 0.395938 13.4642 1.03553C14.2053 0.893406 14.916 0.619281 15.5454 0.243656C15.3018 1.00509 14.784 1.64469 14.1038 2.05075C14.7637 1.97972 15.4033 1.79694 15.9921 1.54316C15.5455 2.19287 14.9871 2.77153 14.3475 3.23856Z" fill="#F4F0F0"/>
</svg>
