<svg width="11" height="18" viewBox="0 0 11 18" fill="none" xmlns="http://www.w3.org/2000/svg">
<path d="M7.90365 9L1.07031 2.16667C0.85677 1.95313 0.749999 1.6684 0.749999 1.3125C0.749999 0.956597 0.874565 0.65408 1.1237 0.404948C1.37283 0.155816 1.67535 0.0312504 2.03125 0.0312504C2.38715 0.0312504 2.70746 0.13802 2.99219 0.351563L10.6797 8.03906C10.8932 8.32378 11 8.6441 11 9C11 9.3559 10.8932 9.64063 10.6797 9.85417L2.88542 17.6484C2.67187 17.862 2.38715 17.9688 2.03125 17.9688C1.67535 17.9688 1.37283 17.8442 1.1237 17.5951C0.874566 17.3459 0.75 17.0434 0.75 16.6875C0.75 16.3316 0.85677 16.0469 1.07031 15.8333L7.90365 9Z" fill="#1B1B1B"/>
</svg>
